# xmcd
#
# Track frame offsets:
#	150
#	20327
#	44322
#	68362
#	85743
#	105873
#	134593
#	155852
#	172400
#	191715
#	202956
#	217367
#	246818
#	263203
#	279042
#	299499
#	323997
#
# Disc length: 4589 seconds
#
# Revision: 0
# Processed by: cddbd v1.5.1PL2 Copyright (c) Steve Scherf et al.
# Submitted via: dBpowerAMP V4.0
#
DISCID=0111eb11
DTITLE=Billy Paul - The Best Of Billy Paul
DYEAR=1900
DGENRE=Soul
TTITLE0=All I Need Is You
TTITLE1=America
TTITLE2=Caompared To What
TTITLE3=Everyday People
TTITLE4=Its Too Late
TTITLE5=Let's Stay Together
TTITLE6=Me And Mrs. Jones
TTITLE7=Only The Strong Survive
TTITLE8=People Power
TTITLE9=Robbie Rivera Ft
TTITLE10=I Can't Live
TTITLE11=Your Song
TTITLE12=You're My Sweetness
TTITLE13=Let Em In
TTITLE14=Brown Baby
TTITLE15=July July July
TTITLE16=Mrs. Robinson
EXTD=Excelent
EXTT0=
EXTT1=
EXTT2=
EXTT3=
EXTT4=
EXTT5=
EXTT6=
EXTT7=
EXTT8=
EXTT9=
EXTT10=
EXTT11=
EXTT12=
EXTT13=
EXTT14=
EXTT15=
EXTT16=
PLAYORDER=
